<svg height="480pt" viewBox="-19 0 479 480" width="480pt" xmlns="http://www.w3.org/2000/svg"><path d="m400.5 0h-344c-13.253906 0-24 10.746094-24 24v48h-24c-4.417969 0-8 3.582031-8 8s3.582031 8 8 8h24v64h-24c-4.417969 0-8 3.582031-8 8s3.582031 8 8 8h24v64h-24c-4.417969 0-8 3.582031-8 8s3.582031 8 8 8h24v64h-24c-4.417969 0-8 3.582031-8 8s3.582031 8 8 8h24v64h-24c-4.417969 0-8 3.582031-8 8s3.582031 8 8 8h24v48c0 13.253906 10.746094 24 24 24h344c22.082031-.027344 39.972656-17.917969 40-40v-400c-.027344-22.082031-17.917969-39.9726562-40-40zm-352 456v-48h32c4.417969 0 8-3.582031 8-8s-3.582031-8-8-8h-32v-64h32c4.417969 0 8-3.582031 8-8s-3.582031-8-8-8h-32v-64h32c4.417969 0 8-3.582031 8-8s-3.582031-8-8-8h-32v-64h32c4.417969 0 8-3.582031 8-8s-3.582031-8-8-8h-32v-64h32c4.417969 0 8-3.582031 8-8s-3.582031-8-8-8h-32v-48c0-4.417969 3.582031-8 8-8h64v448h-64c-4.417969 0-8-3.582031-8-8zm376-16c0 13.253906-10.746094 24-24 24h-264v-448h264c13.253906 0 24 10.746094 24 24zm0 0"/><path d="m368.5 72h-176c-4.417969 0-8 3.582031-8 8s3.582031 8 8 8h176c4.417969 0 8-3.582031 8-8s-3.582031-8-8-8zm0 0"/><path d="m368.5 152h-176c-4.417969 0-8 3.582031-8 8s3.582031 8 8 8h176c4.417969 0 8-3.582031 8-8s-3.582031-8-8-8zm0 0"/><path d="m368.5 232h-176c-4.417969 0-8 3.582031-8 8s3.582031 8 8 8h176c4.417969 0 8-3.582031 8-8s-3.582031-8-8-8zm0 0"/><path d="m368.5 312h-176c-4.417969 0-8 3.582031-8 8s3.582031 8 8 8h176c4.417969 0 8-3.582031 8-8s-3.582031-8-8-8zm0 0"/><path d="m368.5 392h-176c-4.417969 0-8 3.582031-8 8s3.582031 8 8 8h176c4.417969 0 8-3.582031 8-8s-3.582031-8-8-8zm0 0"/></svg>